<mxfile host="app.diagrams.net" modified="2024-06-17T04:01:18.761Z" agent="Mozilla/5.0 (Macintosh; Intel Mac OS X 10_15_7) AppleWebKit/537.36 (KHTML, like Gecko) Chrome/125.0.0.0 Safari/537.36" etag="AjPFLdN7Zrp_ww7T0bdd" version="24.5.4" type="github">
  <diagram name="Page-1" id="we5cs4RC7KMeApgh8dmI">
    <mxGraphModel dx="1493" dy="670" grid="1" gridSize="10" guides="1" tooltips="1" connect="1" arrows="1" fold="1" page="1" pageScale="1" pageWidth="850" pageHeight="1100" math="0" shadow="0">
      <root>
        <mxCell id="0" />
        <mxCell id="1" parent="0" />
        <mxCell id="FF5jHp96McbeZW0J9-R8-1" value="User" style="shape=umlLifeline;perimeter=lifelinePerimeter;whiteSpace=wrap;container=1;dropTarget=0;collapsible=0;recursiveResize=0;outlineConnect=0;portConstraint=eastwest;newEdgeStyle={&quot;edgeStyle&quot;:&quot;elbowEdgeStyle&quot;,&quot;elbow&quot;:&quot;vertical&quot;,&quot;curved&quot;:0,&quot;rounded&quot;:0};size=65;" vertex="1" parent="1">
          <mxGeometry x="20" y="20" width="150" height="2126" as="geometry" />
        </mxCell>
        <mxCell id="FF5jHp96McbeZW0J9-R8-2" value="App" style="shape=umlLifeline;perimeter=lifelinePerimeter;whiteSpace=wrap;container=1;dropTarget=0;collapsible=0;recursiveResize=0;outlineConnect=0;portConstraint=eastwest;newEdgeStyle={&quot;edgeStyle&quot;:&quot;elbowEdgeStyle&quot;,&quot;elbow&quot;:&quot;vertical&quot;,&quot;curved&quot;:0,&quot;rounded&quot;:0};size=65;" vertex="1" parent="1">
          <mxGeometry x="410" y="20" width="150" height="2126" as="geometry" />
        </mxCell>
        <mxCell id="FF5jHp96McbeZW0J9-R8-3" value="MikroTikRouter" style="shape=umlLifeline;perimeter=lifelinePerimeter;whiteSpace=wrap;container=1;dropTarget=0;collapsible=0;recursiveResize=0;outlineConnect=0;portConstraint=eastwest;newEdgeStyle={&quot;edgeStyle&quot;:&quot;elbowEdgeStyle&quot;,&quot;elbow&quot;:&quot;vertical&quot;,&quot;curved&quot;:0,&quot;rounded&quot;:0};size=65;" vertex="1" parent="1">
          <mxGeometry x="781" y="20" width="150" height="2126" as="geometry" />
        </mxCell>
        <mxCell id="FF5jHp96McbeZW0J9-R8-4" value="BackendAPI" style="shape=umlLifeline;perimeter=lifelinePerimeter;whiteSpace=wrap;container=1;dropTarget=0;collapsible=0;recursiveResize=0;outlineConnect=0;portConstraint=eastwest;newEdgeStyle={&quot;edgeStyle&quot;:&quot;elbowEdgeStyle&quot;,&quot;elbow&quot;:&quot;vertical&quot;,&quot;curved&quot;:0,&quot;rounded&quot;:0};size=65;" vertex="1" parent="1">
          <mxGeometry x="981" y="20" width="150" height="2126" as="geometry" />
        </mxCell>
        <mxCell id="FF5jHp96McbeZW0J9-R8-5" value="par" style="shape=umlFrame;dashed=1;pointerEvents=0;dropTarget=0;strokeColor=#B3B3B3;height=20;width=30" vertex="1" parent="1">
          <mxGeometry x="474" y="380" width="593" height="846" as="geometry" />
        </mxCell>
        <mxCell id="FF5jHp96McbeZW0J9-R8-6" value="[Fetch User Info]" style="text;strokeColor=none;fillColor=none;align=center;verticalAlign=middle;whiteSpace=wrap;" vertex="1" parent="FF5jHp96McbeZW0J9-R8-5">
          <mxGeometry x="30" width="563" height="20" as="geometry" />
        </mxCell>
        <mxCell id="FF5jHp96McbeZW0J9-R8-7" value="[Fetch Points]" style="shape=line;dashed=1;whiteSpace=wrap;verticalAlign=top;labelPosition=center;verticalLabelPosition=middle;align=center;strokeColor=#B3B3B3;" vertex="1" parent="FF5jHp96McbeZW0J9-R8-5">
          <mxGeometry y="146" width="593" height="4" as="geometry" />
        </mxCell>
        <mxCell id="FF5jHp96McbeZW0J9-R8-8" value="[Fetch Ads]" style="shape=line;dashed=1;whiteSpace=wrap;verticalAlign=top;labelPosition=center;verticalLabelPosition=middle;align=center;strokeColor=#B3B3B3;" vertex="1" parent="FF5jHp96McbeZW0J9-R8-5">
          <mxGeometry y="287" width="593" height="4" as="geometry" />
        </mxCell>
        <mxCell id="FF5jHp96McbeZW0J9-R8-9" value="[Fetch Preset Packages]" style="shape=line;dashed=1;whiteSpace=wrap;verticalAlign=top;labelPosition=center;verticalLabelPosition=middle;align=center;strokeColor=#B3B3B3;" vertex="1" parent="FF5jHp96McbeZW0J9-R8-5">
          <mxGeometry y="428" width="593" height="4" as="geometry" />
        </mxCell>
        <mxCell id="FF5jHp96McbeZW0J9-R8-10" value="[Fetch Custom Packages Info]" style="shape=line;dashed=1;whiteSpace=wrap;verticalAlign=top;labelPosition=center;verticalLabelPosition=middle;align=center;strokeColor=#B3B3B3;" vertex="1" parent="FF5jHp96McbeZW0J9-R8-5">
          <mxGeometry y="569" width="593" height="4" as="geometry" />
        </mxCell>
        <mxCell id="FF5jHp96McbeZW0J9-R8-11" value="[Fetch Payment Options]" style="shape=line;dashed=1;whiteSpace=wrap;verticalAlign=top;labelPosition=center;verticalLabelPosition=middle;align=center;strokeColor=#B3B3B3;" vertex="1" parent="FF5jHp96McbeZW0J9-R8-5">
          <mxGeometry y="710" width="593" height="4" as="geometry" />
        </mxCell>
        <mxCell id="FF5jHp96McbeZW0J9-R8-12" value="alt" style="shape=umlFrame;dashed=1;pointerEvents=0;dropTarget=0;strokeColor=#B3B3B3;height=20;width=30" vertex="1" parent="1">
          <mxGeometry x="372" y="1359" width="228" height="171" as="geometry" />
        </mxCell>
        <mxCell id="FF5jHp96McbeZW0J9-R8-13" value="[Preset packages&#xa;available]" style="text;strokeColor=none;fillColor=none;align=center;verticalAlign=middle;whiteSpace=wrap;" vertex="1" parent="FF5jHp96McbeZW0J9-R8-12">
          <mxGeometry x="30" width="198" height="20" as="geometry" />
        </mxCell>
        <mxCell id="FF5jHp96McbeZW0J9-R8-14" value="alt" style="shape=umlFrame;dashed=1;pointerEvents=0;dropTarget=0;strokeColor=#B3B3B3;height=20;width=30" vertex="1" parent="1">
          <mxGeometry x="369" y="1540" width="235" height="209" as="geometry" />
        </mxCell>
        <mxCell id="FF5jHp96McbeZW0J9-R8-15" value="[Custom packages&#xa;allowed&#xa;(havePaymentMethods&#xa;= true)]" style="text;strokeColor=none;fillColor=none;align=center;verticalAlign=middle;whiteSpace=wrap;" vertex="1" parent="FF5jHp96McbeZW0J9-R8-14">
          <mxGeometry x="30" width="205" height="20" as="geometry" />
        </mxCell>
        <mxCell id="FF5jHp96McbeZW0J9-R8-16" value="alt" style="shape=umlFrame;dashed=1;pointerEvents=0;dropTarget=0;strokeColor=#B3B3B3;height=20;width=30" vertex="1" parent="1">
          <mxGeometry x="84" y="1236" width="571" height="664" as="geometry" />
        </mxCell>
        <mxCell id="FF5jHp96McbeZW0J9-R8-17" value="[User info retrieval successful]" style="text;strokeColor=none;fillColor=none;align=center;verticalAlign=middle;whiteSpace=wrap;" vertex="1" parent="FF5jHp96McbeZW0J9-R8-16">
          <mxGeometry x="30" width="541" height="20" as="geometry" />
        </mxCell>
        <mxCell id="FF5jHp96McbeZW0J9-R8-18" value="[User info retrieval failed]" style="shape=line;dashed=1;whiteSpace=wrap;verticalAlign=top;labelPosition=center;verticalLabelPosition=middle;align=center;strokeColor=#B3B3B3;" vertex="1" parent="FF5jHp96McbeZW0J9-R8-16">
          <mxGeometry y="576" width="571" height="4" as="geometry" />
        </mxCell>
        <mxCell id="FF5jHp96McbeZW0J9-R8-19" value="alt" style="shape=umlFrame;dashed=1;pointerEvents=0;dropTarget=0;strokeColor=#B3B3B3;height=20;width=30" vertex="1" parent="1">
          <mxGeometry x="74" y="287" width="1003" height="1764" as="geometry" />
        </mxCell>
        <mxCell id="FF5jHp96McbeZW0J9-R8-20" value="[Token retrieval successful]" style="text;strokeColor=none;fillColor=none;align=center;verticalAlign=middle;whiteSpace=wrap;" vertex="1" parent="FF5jHp96McbeZW0J9-R8-19">
          <mxGeometry x="30" width="973" height="20" as="geometry" />
        </mxCell>
        <mxCell id="FF5jHp96McbeZW0J9-R8-21" value="[Token retrieval failed]" style="shape=line;dashed=1;whiteSpace=wrap;verticalAlign=top;labelPosition=center;verticalLabelPosition=middle;align=center;strokeColor=#B3B3B3;" vertex="1" parent="FF5jHp96McbeZW0J9-R8-19">
          <mxGeometry y="1628" width="1003" height="4" as="geometry" />
        </mxCell>
        <mxCell id="FF5jHp96McbeZW0J9-R8-22" value="Open app" style="verticalAlign=bottom;endArrow=block;edgeStyle=elbowEdgeStyle;elbow=vertical;curved=0;rounded=0;" edge="1" parent="1" source="FF5jHp96McbeZW0J9-R8-1" target="FF5jHp96McbeZW0J9-R8-2">
          <mxGeometry relative="1" as="geometry">
            <Array as="points">
              <mxPoint x="299" y="123" />
            </Array>
          </mxGeometry>
        </mxCell>
        <mxCell id="FF5jHp96McbeZW0J9-R8-23" value="GET http://login.hotspot/AppLanding.html" style="verticalAlign=bottom;endArrow=block;edgeStyle=elbowEdgeStyle;elbow=vertical;curved=0;rounded=0;" edge="1" parent="1" source="FF5jHp96McbeZW0J9-R8-2" target="FF5jHp96McbeZW0J9-R8-3">
          <mxGeometry relative="1" as="geometry">
            <Array as="points">
              <mxPoint x="679" y="171" />
            </Array>
          </mxGeometry>
        </mxCell>
        <mxCell id="FF5jHp96McbeZW0J9-R8-24" value="Return username" style="verticalAlign=bottom;endArrow=block;edgeStyle=elbowEdgeStyle;elbow=vertical;curved=0;rounded=0;dashed=1;dashPattern=2 3;" edge="1" parent="1" source="FF5jHp96McbeZW0J9-R8-3" target="FF5jHp96McbeZW0J9-R8-2">
          <mxGeometry relative="1" as="geometry">
            <Array as="points">
              <mxPoint x="682" y="219" />
            </Array>
          </mxGeometry>
        </mxCell>
        <mxCell id="FF5jHp96McbeZW0J9-R8-25" value="POST /users/current (username)" style="verticalAlign=bottom;endArrow=block;edgeStyle=elbowEdgeStyle;elbow=vertical;curved=0;rounded=0;" edge="1" parent="1" source="FF5jHp96McbeZW0J9-R8-2" target="FF5jHp96McbeZW0J9-R8-4">
          <mxGeometry relative="1" as="geometry">
            <Array as="points">
              <mxPoint x="779" y="267" />
            </Array>
          </mxGeometry>
        </mxCell>
        <mxCell id="FF5jHp96McbeZW0J9-R8-26" value="Return token" style="verticalAlign=bottom;endArrow=block;edgeStyle=elbowEdgeStyle;elbow=vertical;curved=0;rounded=0;dashed=1;dashPattern=2 3;" edge="1" parent="1" source="FF5jHp96McbeZW0J9-R8-4" target="FF5jHp96McbeZW0J9-R8-2">
          <mxGeometry relative="1" as="geometry">
            <Array as="points">
              <mxPoint x="782" y="360" />
            </Array>
          </mxGeometry>
        </mxCell>
        <mxCell id="FF5jHp96McbeZW0J9-R8-27" value="POST /accounts/info" style="verticalAlign=bottom;endArrow=block;edgeStyle=elbowEdgeStyle;elbow=vertical;curved=0;rounded=0;" edge="1" parent="1" source="FF5jHp96McbeZW0J9-R8-2" target="FF5jHp96McbeZW0J9-R8-4">
          <mxGeometry relative="1" as="geometry">
            <Array as="points">
              <mxPoint x="779" y="453" />
            </Array>
          </mxGeometry>
        </mxCell>
        <mxCell id="FF5jHp96McbeZW0J9-R8-28" value="Return user info" style="verticalAlign=bottom;endArrow=block;edgeStyle=elbowEdgeStyle;elbow=vertical;curved=0;rounded=0;dashed=1;dashPattern=2 3;" edge="1" parent="1" source="FF5jHp96McbeZW0J9-R8-4" target="FF5jHp96McbeZW0J9-R8-2">
          <mxGeometry relative="1" as="geometry">
            <Array as="points">
              <mxPoint x="782" y="501" />
            </Array>
          </mxGeometry>
        </mxCell>
        <mxCell id="FF5jHp96McbeZW0J9-R8-29" value="GET /accounts/points" style="verticalAlign=bottom;endArrow=block;edgeStyle=elbowEdgeStyle;elbow=vertical;curved=0;rounded=0;" edge="1" parent="1" source="FF5jHp96McbeZW0J9-R8-2" target="FF5jHp96McbeZW0J9-R8-4">
          <mxGeometry relative="1" as="geometry">
            <Array as="points">
              <mxPoint x="779" y="594" />
            </Array>
          </mxGeometry>
        </mxCell>
        <mxCell id="FF5jHp96McbeZW0J9-R8-30" value="Return user points" style="verticalAlign=bottom;endArrow=block;edgeStyle=elbowEdgeStyle;elbow=vertical;curved=0;rounded=0;dashed=1;dashPattern=2 3;" edge="1" parent="1" source="FF5jHp96McbeZW0J9-R8-4" target="FF5jHp96McbeZW0J9-R8-2">
          <mxGeometry relative="1" as="geometry">
            <Array as="points">
              <mxPoint x="782" y="642" />
            </Array>
          </mxGeometry>
        </mxCell>
        <mxCell id="FF5jHp96McbeZW0J9-R8-31" value="POST /users/ads" style="verticalAlign=bottom;endArrow=block;edgeStyle=elbowEdgeStyle;elbow=vertical;curved=0;rounded=0;" edge="1" parent="1" source="FF5jHp96McbeZW0J9-R8-2" target="FF5jHp96McbeZW0J9-R8-4">
          <mxGeometry relative="1" as="geometry">
            <Array as="points">
              <mxPoint x="779" y="735" />
            </Array>
          </mxGeometry>
        </mxCell>
        <mxCell id="FF5jHp96McbeZW0J9-R8-32" value="Return ads (title, image URL)" style="verticalAlign=bottom;endArrow=block;edgeStyle=elbowEdgeStyle;elbow=vertical;curved=0;rounded=0;dashed=1;dashPattern=2 3;" edge="1" parent="1" source="FF5jHp96McbeZW0J9-R8-4" target="FF5jHp96McbeZW0J9-R8-2">
          <mxGeometry relative="1" as="geometry">
            <Array as="points">
              <mxPoint x="782" y="783" />
            </Array>
          </mxGeometry>
        </mxCell>
        <mxCell id="FF5jHp96McbeZW0J9-R8-33" value="GET /packages/preset" style="verticalAlign=bottom;endArrow=block;edgeStyle=elbowEdgeStyle;elbow=vertical;curved=0;rounded=0;" edge="1" parent="1" source="FF5jHp96McbeZW0J9-R8-2" target="FF5jHp96McbeZW0J9-R8-4">
          <mxGeometry relative="1" as="geometry">
            <Array as="points">
              <mxPoint x="779" y="876" />
            </Array>
          </mxGeometry>
        </mxCell>
        <mxCell id="FF5jHp96McbeZW0J9-R8-34" value="Return preset packages list" style="verticalAlign=bottom;endArrow=block;edgeStyle=elbowEdgeStyle;elbow=vertical;curved=0;rounded=0;dashed=1;dashPattern=2 3;" edge="1" parent="1" source="FF5jHp96McbeZW0J9-R8-4" target="FF5jHp96McbeZW0J9-R8-2">
          <mxGeometry relative="1" as="geometry">
            <Array as="points">
              <mxPoint x="782" y="924" />
            </Array>
          </mxGeometry>
        </mxCell>
        <mxCell id="FF5jHp96McbeZW0J9-R8-35" value="GET /packages/custom" style="verticalAlign=bottom;endArrow=block;edgeStyle=elbowEdgeStyle;elbow=vertical;curved=0;rounded=0;" edge="1" parent="1" source="FF5jHp96McbeZW0J9-R8-2" target="FF5jHp96McbeZW0J9-R8-4">
          <mxGeometry relative="1" as="geometry">
            <Array as="points">
              <mxPoint x="779" y="1017" />
            </Array>
          </mxGeometry>
        </mxCell>
        <mxCell id="FF5jHp96McbeZW0J9-R8-36" value="Return custom packages info" style="verticalAlign=bottom;endArrow=block;edgeStyle=elbowEdgeStyle;elbow=vertical;curved=0;rounded=0;dashed=1;dashPattern=2 3;" edge="1" parent="1" source="FF5jHp96McbeZW0J9-R8-4" target="FF5jHp96McbeZW0J9-R8-2">
          <mxGeometry relative="1" as="geometry">
            <Array as="points">
              <mxPoint x="782" y="1065" />
            </Array>
          </mxGeometry>
        </mxCell>
        <mxCell id="FF5jHp96McbeZW0J9-R8-37" value="POST /payments/selection" style="verticalAlign=bottom;endArrow=block;edgeStyle=elbowEdgeStyle;elbow=vertical;curved=0;rounded=0;" edge="1" parent="1" source="FF5jHp96McbeZW0J9-R8-2" target="FF5jHp96McbeZW0J9-R8-4">
          <mxGeometry relative="1" as="geometry">
            <Array as="points">
              <mxPoint x="779" y="1158" />
            </Array>
          </mxGeometry>
        </mxCell>
        <mxCell id="FF5jHp96McbeZW0J9-R8-38" value="Return payment options" style="verticalAlign=bottom;endArrow=block;edgeStyle=elbowEdgeStyle;elbow=vertical;curved=0;rounded=0;dashed=1;dashPattern=2 3;" edge="1" parent="1" source="FF5jHp96McbeZW0J9-R8-4" target="FF5jHp96McbeZW0J9-R8-2">
          <mxGeometry relative="1" as="geometry">
            <Array as="points">
              <mxPoint x="782" y="1206" />
            </Array>
          </mxGeometry>
        </mxCell>
        <mxCell id="FF5jHp96McbeZW0J9-R8-39" value="Display username and points on home page" style="curved=1;rounded=0;" edge="1" parent="1" source="FF5jHp96McbeZW0J9-R8-2" target="FF5jHp96McbeZW0J9-R8-2">
          <mxGeometry relative="1" as="geometry">
            <Array as="points">
              <mxPoint x="536" y="1309" />
              <mxPoint x="536" y="1339" />
            </Array>
          </mxGeometry>
        </mxCell>
        <mxCell id="FF5jHp96McbeZW0J9-R8-40" value="Show preset package button" style="curved=1;rounded=0;" edge="1" parent="1" source="FF5jHp96McbeZW0J9-R8-2" target="FF5jHp96McbeZW0J9-R8-2">
          <mxGeometry relative="1" as="geometry">
            <Array as="points">
              <mxPoint x="536" y="1450" />
              <mxPoint x="536" y="1480" />
            </Array>
          </mxGeometry>
        </mxCell>
        <mxCell id="FF5jHp96McbeZW0J9-R8-41" value="Show custom package button" style="curved=1;rounded=0;" edge="1" parent="1" source="FF5jHp96McbeZW0J9-R8-2" target="FF5jHp96McbeZW0J9-R8-2">
          <mxGeometry relative="1" as="geometry">
            <Array as="points">
              <mxPoint x="536" y="1669" />
              <mxPoint x="536" y="1699" />
            </Array>
          </mxGeometry>
        </mxCell>
        <mxCell id="FF5jHp96McbeZW0J9-R8-42" value="Display home page" style="verticalAlign=bottom;endArrow=block;edgeStyle=elbowEdgeStyle;elbow=vertical;curved=0;rounded=0;" edge="1" parent="1" source="FF5jHp96McbeZW0J9-R8-2" target="FF5jHp96McbeZW0J9-R8-1">
          <mxGeometry relative="1" as="geometry">
            <Array as="points">
              <mxPoint x="302" y="1787" />
            </Array>
          </mxGeometry>
        </mxCell>
        <mxCell id="FF5jHp96McbeZW0J9-R8-43" value="Display about page (policy, try again button)" style="verticalAlign=bottom;endArrow=block;edgeStyle=elbowEdgeStyle;elbow=vertical;curved=0;rounded=0;" edge="1" parent="1" source="FF5jHp96McbeZW0J9-R8-2" target="FF5jHp96McbeZW0J9-R8-1">
          <mxGeometry relative="1" as="geometry">
            <Array as="points">
              <mxPoint x="302" y="1880" />
            </Array>
          </mxGeometry>
        </mxCell>
        <mxCell id="FF5jHp96McbeZW0J9-R8-44" value="Return error" style="verticalAlign=bottom;endArrow=block;edgeStyle=elbowEdgeStyle;elbow=vertical;curved=0;rounded=0;dashed=1;dashPattern=2 3;" edge="1" parent="1" source="FF5jHp96McbeZW0J9-R8-4" target="FF5jHp96McbeZW0J9-R8-2">
          <mxGeometry relative="1" as="geometry">
            <Array as="points">
              <mxPoint x="782" y="1983" />
            </Array>
          </mxGeometry>
        </mxCell>
        <mxCell id="FF5jHp96McbeZW0J9-R8-45" value="Display about page (policy, try again button)" style="verticalAlign=bottom;endArrow=block;edgeStyle=elbowEdgeStyle;elbow=vertical;curved=0;rounded=0;" edge="1" parent="1" source="FF5jHp96McbeZW0J9-R8-2" target="FF5jHp96McbeZW0J9-R8-1">
          <mxGeometry relative="1" as="geometry">
            <Array as="points">
              <mxPoint x="302" y="2031" />
            </Array>
          </mxGeometry>
        </mxCell>
      </root>
    </mxGraphModel>
  </diagram>
</mxfile>
